<?xml version="1.0" encoding="utf-8"?>
<!-- Generator: Adobe Illustrator 27.0.0, SVG Export Plug-In . SVG Version: 6.00 Build 0)  -->
<svg version="1.1" id="レイヤー_1" xmlns:serif="http://www.serif.com/"
	 xmlns="http://www.w3.org/2000/svg" xmlns:xlink="http://www.w3.org/1999/xlink" x="0px" y="0px" viewBox="0 0 180 180"
	 style="enable-background:new 0 0 180 180;" xml:space="preserve">
<style type="text/css">
	.st0{fill:#EDEDED;}
	.st1{opacity:0.7;}
	.st2{fill:#D4D4D4;}
	.st3{fill:#B1B1B1;}
	.st4{fill:#CACACA;}
	.st5{fill:#7F7F7F;}
	.st6{fill:#545454;}
</style>
<rect class="st0" width="180" height="180"/>
<g class="st1">
	<path class="st0" d="M132.2,84.8c21.7,30.5-5.4,68.7-43.6,68.1c-40.7,0.5-67.3-41.6-40.6-71.9c9.3,6.4,20.5,10.4,32.9,11.7v17.9
		c-11.8,3.7-20.2,13.4-20.7,13.9c-0.7,0.8-0.7,2.1,0,2.9c0.5,0.6,13.2,15.3,29.4,15.3c16.1,0,28.8-14.7,29.4-15.3
		c0.7-0.8,0.7-2.1,0-2.9c-0.4-0.5-8.9-10.2-20.7-13.9V92.7c11.8-1.2,22.6-5,31.6-10.8c0,0,0,0,0,0C130.7,82.9,131.4,83.8,132.2,84.8
		z"/>
	<path class="st2" d="M115.5,124.2c-16.9-16.7-35-16.7-51.8,0C78.1,121.6,101.1,121.6,115.5,124.2z"/>
	<path class="st2" d="M89.6,124.6c-10.1,0-19.5,0.8-27,2.2c17.3,18.1,36.7,18,53.9,0C109.1,125.4,99.8,124.6,89.6,124.6z"/>
	<path class="st3" d="M129,76.5c-0.1-2.6-0.3-5.1-0.7-7.6c-9.9,6.3-20.5,9.6-33,10.6c0-9.9,0-37.7,0-47.9c-3.8-0.7-7.6-0.7-11.4,0
		c0,10.5,0,37.8,0,48c-12.5-1-23.1-4.3-33-10.6c-0.5,3.3-0.8,6.6-0.7,10C59.3,85,71,89.1,83.9,90v19.9c3.7-0.8,7.7-0.8,11.4,0V90
		c13-0.9,24.3-4.9,33.7-11.1C129,78.1,129,77.3,129,76.5z M59.4,82.4c-4.5-0.1-4.5-6.7,0-6.8C63.9,75.7,63.9,82.2,59.4,82.4z
		 M73.2,86.9c-4.5-0.1-4.5-6.7,0-6.8C77.6,80.2,77.6,86.8,73.2,86.9z M89.6,39.5c4.5,0.1,4.5,6.7,0,6.8
		C85.1,46.1,85.1,39.6,89.6,39.5z M89.6,53.4c4.5,0.1,4.5,6.7,0,6.8C85.1,60.1,85.1,53.5,89.6,53.4z M89.6,102.1
		c-4.5-0.1-4.5-6.7,0-6.8C94.1,95.4,94.1,102,89.6,102.1z M89.6,88.1c-4.5-0.1-4.5-6.7,0-6.8C94.1,81.5,94.1,88,89.6,88.1z
		 M89.6,74.2c-4.5-0.1-4.5-6.7,0-6.8C94.1,67.5,94.1,74.1,89.6,74.2z M104.5,86.9c-4.5-0.1-4.5-6.7,0-6.8
		C109,80.2,109,86.8,104.5,86.9z M118.3,82.8c-4.5-0.1-4.5-6.7,0-6.8C122.8,76.1,122.8,82.7,118.3,82.8z"/>
	<g>
		<path class="st2" d="M89.6,46.3c4.5-0.1,4.5-6.7,0-6.8C85.1,39.6,85.1,46.1,89.6,46.3z"/>
	</g>
	<g>
		<path class="st2" d="M93,56.8c-0.1-4.5-6.7-4.5-6.8,0C86.3,61.3,92.9,61.3,93,56.8z"/>
	</g>
	<g>
		<path class="st2" d="M89.6,74.2c4.5-0.1,4.5-6.7,0-6.8C85.1,67.5,85.1,74.1,89.6,74.2z"/>
	</g>
	<g>
		<path class="st2" d="M89.6,88.1c4.5-0.1,4.5-6.7,0-6.8C85.1,81.5,85.1,88,89.6,88.1z"/>
	</g>
	<g>
		<path class="st2" d="M104.5,86.9c4.5-0.1,4.5-6.7,0-6.8C100.1,80.2,100.1,86.8,104.5,86.9z"/>
	</g>
	<g>
		<path class="st2" d="M118.3,82.8c4.5-0.1,4.5-6.7,0-6.8C113.8,76.1,113.8,82.7,118.3,82.8z"/>
	</g>
	<g>
		<path class="st2" d="M73.2,86.9c4.5-0.1,4.5-6.7,0-6.8C68.7,80.2,68.7,86.8,73.2,86.9z"/>
	</g>
	<g>
		<path class="st2" d="M59.4,82.4c4.5-0.1,4.5-6.7,0-6.8C54.9,75.7,54.9,82.2,59.4,82.4z"/>
	</g>
	<g>
		<path class="st2" d="M89.6,102.1c4.5-0.1,4.5-6.7,0-6.8C85.1,95.4,85.1,102,89.6,102.1z"/>
	</g>
	<path class="st4" d="M130.5,64.1c0.3,1.7,0.9,5.2,1.1,6.9c21.4-2.4,30.3-26.9,12.8-39.6c3.1,11.7-5,21-17.2,22.9
		C128.6,57.3,129.7,60.6,130.5,64.1z"/>
	<path class="st4" d="M35,38.1c0-1.7,0.2-3.3,0.6-4.9c-17.2,12.4-9.1,36.5,11.7,39.5c0.4-5.9,1.8-11.7,4-16.9
		C41.8,53.6,35,47.7,35,38.1z"/>
	<path class="st5" d="M51.4,65.6C51.4,65.6,51.4,65.6,51.4,65.6l1.2,0.8c1.6,1,3.2,2,5,2.9c1.1,0.5,2.1,1.1,3.2,1.6
		c6.1,2.7,12.9,4.6,20.1,5.4v-12v-32c-0.7,0.2-1.3,0.4-2,0.6c0,0,0,0,0,0C69.2,36,60.9,43.5,55.7,53.5c-0.2,0.5-0.5,0.9-0.7,1.4
		c-0.2,0.5-0.5,1-0.7,1.4c-1,2.2-1.8,4.5-2.4,6.9c0,0,0,0,0,0C51.8,64,51.6,64.8,51.4,65.6z"/>
	<path class="st5" d="M98.3,64.5v3v8.7c6.7-0.8,13.1-2.4,19-4.9c1.1-0.5,2.2-1,3.3-1.5c2.1-1,4.1-2.2,6.1-3.4l1.2-0.8c0,0,0,0,0,0
		c-0.9-3.9-2.2-7.6-3.8-11c-0.2-0.5-0.5-1-0.7-1.5c-0.3-0.5-0.5-1-0.8-1.4C117,42,108.3,34.9,98.3,32.2c0,0,0,0,0,0v29.2V64.5z"/>
	<g>
		<path class="st6" d="M71.3,105.4c0-5.2-3.6-9.5-8.1-9.5c-10.7,0.4-10.7,18.6,0,19C67.7,114.9,71.3,110.6,71.3,105.4z"/>
		<path class="st6" d="M116.4,95.9c-4.5,0-8.1,4.3-8.1,9.5c0.4,12.6,15.8,12.6,16.1,0C124.5,100.1,120.9,95.9,116.4,95.9z"/>
		<path class="st6" d="M156.8,48.7c0-7.7-3.9-15-10.6-19.8l-6.7-4.8c0.6,2.9,2.7,9.3,2.6,12.2c0,6.5-4.4,13.4-16.2,15.2
			c-17-31.9-57.5-30.7-73.2,1.6C42,50.9,38,44.3,38,38.1c-0.1-2.8,2-9.4,2.6-12.2l-6.7,4.8C14.2,45,23.7,72.5,47.2,75.7
			c0,0.6,0,1.2,0,1.8c-30.6,31.8-2.9,78.9,41.4,78.4c42.7,0.6,71-44.2,43.4-76.2c0-0.5,0-1.2,0-1.7c0,0,0,0,0,0c0,0,0,0,0,0
			c0,0,0-0.1,0-0.1c0-1.3,0-2.7-0.1-4C145.9,72.3,156.8,61.6,156.8,48.7z M98.3,67.5c0-3.7,0-30.9,0-35.3c0,0,0,0,0,0
			c11.4,3,20.7,11.9,25.7,22.4c1.7,3.5,3,7.2,3.8,11c0,0,0,0,0,0c-8.8,6-18.6,9.3-29.5,10.6V67.5z M83.9,63.9V31.6
			c1-0.2,2-0.3,3-0.4c0,0,0,0,0,0c1.8-0.2,3.6-0.2,5.3,0c0,0,0,0,0,0c0.2,0,0.3,0,0.5,0c0,0,0,0,0,0c0.9,0.1,1.7,0.2,2.6,0.3
			c0,10.4,0,37.9,0,47.9c12.5-1,23-4.3,33-10.6c0.5,3.2,0.8,6.6,0.7,10C119.7,85.1,108.3,89,95.3,90v19.9c-3.7-0.8-7.7-0.8-11.4,0
			V90c-13-0.9-24.7-5-33.7-11.1c-0.1-3.3,0.2-6.7,0.7-10c9.9,6.3,20.4,9.6,33,10.6V63.9z M128.7,71.6c0,0.4,0.1,0.7,0.1,1.1
			c0,0,0,0,0,0C128.8,72.3,128.8,72,128.7,71.6z M89.6,122.2c-9.6,0-18.5,0.7-25.9,2c17-16.8,34.9-16.7,51.8,0
			C108.1,122.9,99.2,122.2,89.6,122.2z M116.6,126.8c-17.3,18.1-36.6,18.1-53.9,0C77.2,123.9,102,123.9,116.6,126.8z M51.4,65.6
			c3.2-15.2,14.1-29.3,29.5-33.4c0,8.6,0,35.9,0,44C70,74.9,60.2,71.6,51.4,65.6C51.4,65.6,51.4,65.6,51.4,65.6z M26.2,50.6
			c0-7,3.7-13.3,9.4-17.4c-3,11.1,4.3,20.3,15.7,22.6c-2.2,5.3-3.6,11-4,16.9C35.3,70.8,26.2,61.7,26.2,50.6z M132.2,84.8
			c21.7,30.5-5.4,68.7-43.6,68.1c-40.7,0.5-67.3-41.6-40.6-71.9c9.3,6.4,20.5,10.4,32.9,11.7v17.9c-11.8,3.7-20.2,13.4-20.7,13.9
			c-0.7,0.8-0.7,2.1,0,2.9c0.5,0.6,13.2,15.3,29.4,15.3c16.1,0,28.8-14.7,29.4-15.3c0.7-0.8,0.7-2.1,0-2.9
			c-0.4-0.5-8.9-10.2-20.7-13.9V92.7c11.8-1.2,22.6-5,31.6-10.8c0,0,0,0,0,0C130.7,82.9,131.4,83.8,132.2,84.8z M131.7,70.9
			c-0.3-2.3-0.6-4.6-1.2-6.9l0-0.2l0,0c-0.8-3.4-1.9-6.6-3.3-9.7c12.2-1.9,20.3-11.2,17.2-22.9C161.9,44,153.1,68.5,131.7,70.9z"/>
	</g>
</g>
</svg>
