<?xml version="1.0" encoding="utf-8"?>
<!-- Generator: Adobe Illustrator 27.0.0, SVG Export Plug-In . SVG Version: 6.00 Build 0)  -->
<svg version="1.1" id="レイヤー_1" xmlns="http://www.w3.org/2000/svg" xmlns:xlink="http://www.w3.org/1999/xlink" x="0px"
	 y="0px" viewBox="0 0 197.8 197.8" style="enable-background:new 0 0 197.8 197.8;" xml:space="preserve">
<style type="text/css">
	.st0{fill:#333333;}
</style>
<path class="st0" d="M98.9,197.8C44.4,197.8,0,153.5,0,98.9C0,44.4,44.4,0,98.9,0c54.5,0,98.9,44.4,98.9,98.9
	C197.8,153.5,153.5,197.8,98.9,197.8z M98.9,12.6c-47.6,0-86.3,38.7-86.3,86.3c0,47.6,38.7,86.3,86.3,86.3
	c47.6,0,86.3-38.7,86.3-86.3C185.2,51.3,146.5,12.6,98.9,12.6z M110.4,50.1c-4.8-9.8-7.8-19.3-9.3-24.8v70.1c2.4,0.9,4.2,3.3,4.2,6
	c0,3.6-2.9,6.4-6.4,6.4c-3.6,0-6.4-2.9-6.4-6.4c0-2.9,1.9-5.3,4.6-6.1v-70c-1.5,5.5-4.4,15.1-9.3,24.9c-7.6,15.3-17,28.8-17,28.8
	l6,82.6c0,0,5.7,6.4,22.3,6.4h0c16.6,0,22.3-6.4,22.3-6.4l6-82.6C127.4,78.9,118,65.4,110.4,50.1L110.4,50.1z"/>
</svg>
